<svg xmlns="http://www.w3.org/2000/svg" xmlns:xlink="http://www.w3.org/1999/xlink" contentStyleType="text/css" data-diagram-type="DESCRIPTION" height="275px" preserveAspectRatio="none" style="width:1167px;height:275px;" version="1.1" viewBox="0 0 1167 275" width="1167.7083px" zoomAndPan="magnify"><?plantuml 1.2026.7beta1?><defs><linearGradient id="gb56pa8chswg30" x1="50%" x2="50%" y1="0%" y2="100%"><stop offset="0%" stop-color="#4DABF5"/><stop offset="100%" stop-color="#2196F3"/></linearGradient><filter height="300%" id="fb56pa8chswg3" width="300%" x="-1" y="-1"><feGaussianBlur result="blurOut" stdDeviation="2.0833"/><feColorMatrix in="blurOut" result="blurOut2" type="matrix" values="0 0 0 0 0 0 0 0 0 0 0 0 0 0 0 0 0 0 .4 0"/><feOffset dx="4.1667" dy="4.1667" in="blurOut2" result="blurOut3"/><feBlend in="SourceGraphic" in2="blurOut3" mode="normal"/></filter><linearGradient id="gb56pa8chswg31" x1="50%" x2="50%" y1="0%" y2="100%"><stop offset="0%" stop-color="#FFAD33"/><stop offset="100%" stop-color="#FF9800"/></linearGradient></defs><g><!--entity Usuario--><g class="entity" data-qualified-name="Usuario" data-source-line="5" id="ent0001"><ellipse cx="40.4185" cy="96.3542" fill="url(#gb56pa8chswg30)" filter="url(#fb56pa8chswg3)" rx="8.3333" ry="8.3333" style="stroke:#2196F3;stroke-width:1.0417;"/><path d="M40.4185,104.6875 L40.4185,132.8125 M26.8768,113.0208 L53.9602,113.0208 M40.4185,132.8125 L26.8768,148.4375 M40.4185,132.8125 L53.9602,148.4375" fill="none" filter="url(#fb56pa8chswg3)" style="stroke:#2196F3;stroke-width:1.0417;"/><text fill="#222222" font-family="'Verdana'" font-size="12.5" lengthAdjust="spacing" textLength="47.5037" x="16.6667" y="165.2486">Usuario</text></g><!--entity WebApp--><g class="entity" data-qualified-name="WebApp" data-source-line="7" id="ent0002"><rect fill="url(#gb56pa8chswg30)" filter="url(#fb56pa8chswg3)" height="45.8008" rx="4.1667" ry="4.1667" style="stroke:#2196F3;stroke-width:1.0417;" width="94.0715" x="183.9583" y="104.6875"/><rect fill="url(#gb56pa8chswg30)" height="10.4167" style="stroke:#2196F3;stroke-width:1.0417;" width="15.625" x="257.1965" y="109.8958"/><rect fill="url(#gb56pa8chswg30)" height="2.0833" style="stroke:#2196F3;stroke-width:1.0417;" width="4.1667" x="255.1131" y="111.9792"/><rect fill="url(#gb56pa8chswg30)" height="2.0833" style="stroke:#2196F3;stroke-width:1.0417;" width="4.1667" x="255.1131" y="116.1458"/><text fill="#FFFFFF" font-family="'Verdana'" font-size="12.5" lengthAdjust="spacing" textLength="52.4048" x="199.5833" y="137.1236">WebApp</text></g><!--entity PostgreSQL--><g class="entity" data-qualified-name="PostgreSQL" data-source-line="8" id="ent0003"><path d="M1031.1563,27.0833 C1031.1563,16.6667 1077.6233,16.6667 1077.6233,16.6667 C1077.6233,16.6667 1124.0904,16.6667 1124.0904,27.0833 L1124.0904,51.0091 C1124.0904,61.4258 1077.6233,61.4258 1077.6233,61.4258 C1077.6233,61.4258 1031.1563,61.4258 1031.1563,51.0091 L1031.1563,27.0833" fill="url(#gb56pa8chswg30)" filter="url(#fb56pa8chswg3)" style="stroke:#2196F3;stroke-width:1.0417;"/><path d="M1031.1563,27.0833 C1031.1563,37.5 1077.6233,37.5 1077.6233,37.5 C1077.6233,37.5 1124.0904,37.5 1124.0904,27.0833" fill="none" style="stroke:#2196F3;stroke-width:1.0417;"/><text fill="#222222" font-family="'Verdana'" font-size="12.5" lengthAdjust="spacing" textLength="72.1008" x="1041.5729" y="53.2694">PostgreSQL</text></g><!--entity RabbitMQ--><g class="entity" data-qualified-name="RabbitMQ" data-source-line="9" id="ent0004"><path d="M451.9896,115.1042 L523.6184,115.1042 C528.8267,115.1042 528.8267,127.5879 528.8267,127.5879 C528.8267,127.5879 528.8267,140.0716 523.6184,140.0716 L451.9896,140.0716 C446.7813,140.0716 446.7813,127.5879 446.7813,127.5879 C446.7813,127.5879 446.7813,115.1042 451.9896,115.1042" fill="url(#gb56pa8chswg30)" filter="url(#fb56pa8chswg3)" style="stroke:#2196F3;stroke-width:1.0417;"/><path d="M523.6184,115.1042 C518.4101,115.1042 518.4101,127.5879 518.4101,127.5879 C518.4101,140.0716 523.6184,140.0716 523.6184,140.0716" fill="none" style="stroke:#2196F3;stroke-width:1.0417;"/><text fill="#FFFFFF" font-family="'Verdana'" font-size="12.5" lengthAdjust="spacing" textLength="61.2122" x="451.9896" y="131.9153">RabbitMQ</text></g><!--entity MinIO--><g class="entity" data-qualified-name="MinIO" data-source-line="10" id="ent0005"><rect fill="url(#gb56pa8chswg31)" filter="url(#fb56pa8chswg3)" height="35.3841" rx="36.4583" ry="36.4583" style="stroke:#FF9800;stroke-width:1.0417;" width="56.5389" x="1049.3542" y="214.0625"/><text fill="#FFFFFF" font-family="'Verdana'" font-size="12.5" lengthAdjust="spacing" textLength="35.7056" x="1059.7708" y="236.0819">MinIO</text></g><!--entity Worker--><g class="entity" data-qualified-name="Worker" data-source-line="11" id="ent0006"><rect fill="url(#gb56pa8chswg30)" filter="url(#fb56pa8chswg3)" height="45.8008" rx="4.1667" ry="4.1667" style="stroke:#2196F3;stroke-width:1.0417;" width="103.1474" x="726.75" y="104.6875"/><rect fill="url(#gb56pa8chswg30)" height="10.4167" style="stroke:#2196F3;stroke-width:1.0417;" width="15.625" x="809.064" y="109.8958"/><rect fill="url(#gb56pa8chswg30)" height="2.0833" style="stroke:#2196F3;stroke-width:1.0417;" width="4.1667" x="806.9807" y="111.9792"/><rect fill="url(#gb56pa8chswg30)" height="2.0833" style="stroke:#2196F3;stroke-width:1.0417;" width="4.1667" x="806.9807" y="116.1458"/><text fill="#FFFFFF" font-family="'Verdana'" font-size="12.5" lengthAdjust="spacing" textLength="61.4807" x="742.375" y="137.1236">Worker(s)</text></g><!--entity Renderer--><g class="entity" data-qualified-name="Renderer" data-source-line="12" id="ent0007"><rect fill="url(#gb56pa8chswg30)" filter="url(#fb56pa8chswg3)" height="45.8008" rx="4.1667" ry="4.1667" style="stroke:#2196F3;stroke-width:1.0417;" width="128.7944" x="1013.2292" y="104.6875"/><rect fill="url(#gb56pa8chswg30)" height="10.4167" style="stroke:#2196F3;stroke-width:1.0417;" width="15.625" x="1121.1902" y="109.8958"/><rect fill="url(#gb56pa8chswg30)" height="2.0833" style="stroke:#2196F3;stroke-width:1.0417;" width="4.1667" x="1119.1069" y="111.9792"/><rect fill="url(#gb56pa8chswg30)" height="2.0833" style="stroke:#2196F3;stroke-width:1.0417;" width="4.1667" x="1119.1069" y="116.1458"/><text fill="#FFFFFF" font-family="'Verdana'" font-size="12.5" lengthAdjust="spacing" textLength="87.1277" x="1028.8542" y="137.1236">Raytracer MPI</text></g><!--link Usuario to WebApp--><g class="link" data-entity-1="ent0001" data-entity-2="ent0002" data-link-type="dependency" data-source-line="14" id="lnk8"><path d="M64.5729,127.5938 C94.0625,127.5938 140.5729,127.5938 178.3333,127.5938" fill="none" id="Usuario-to-WebApp" style="stroke:#2196F3;stroke-width:3.125;"/><polygon fill="#2196F3" points="183.5417,127.5938,174.1667,123.4271,178.3333,127.5938,174.1667,131.7604,183.5417,127.5938" style="stroke:#2196F3;stroke-width:3.125;stroke-linejoin:miter;stroke-miterlimit:10;"/><text fill="#222222" font-family="'Verdana'" font-size="12.5" lengthAdjust="spacing" textLength="55.9021" x="96.4583" y="124.6132">REST API</text></g><!--link WebApp to PostgreSQL--><g class="link" data-entity-1="ent0002" data-entity-2="ent0003" data-link-type="dependency" data-source-line="16" id="lnk9"><path d="M278.1979,111.5417 C288.3333,108.5 299.0938,105.6458 309.2813,103.6354 C550.8646,55.7813 615.6354,73.0625 861.1458,53.6354 C919.625,49 981.9269,44.9098 1025.5519,42.1702" fill="none" id="WebApp-to-PostgreSQL" style="stroke:#2196F3;stroke-width:3.125;"/><polygon fill="#2196F3" points="1030.75,41.8437,1021.1323,38.2729,1025.5519,42.1702,1021.6546,46.5898,1030.75,41.8437" style="stroke:#2196F3;stroke-width:3.125;stroke-linejoin:miter;stroke-miterlimit:10;"/><text fill="#222222" font-family="'Verdana'" font-size="12.5" lengthAdjust="spacing" textLength="65.9424" x="594.9792" y="61.0715">CRUD Jobs</text></g><!--link WebApp to RabbitMQ--><g class="link" data-entity-1="ent0002" data-entity-2="ent0004" data-link-type="dependency" data-source-line="17" id="lnk10"><path d="M278.4688,127.5938 C326.5313,127.5938 395.6667,127.5938 441.3229,127.5938" fill="none" id="WebApp-to-RabbitMQ" style="stroke:#2196F3;stroke-width:3.125;"/><polygon fill="#2196F3" points="446.5313,127.5938,437.1563,123.4271,441.3229,127.5938,437.1563,131.7604,446.5313,127.5938" style="stroke:#2196F3;stroke-width:3.125;stroke-linejoin:miter;stroke-miterlimit:10;"/><text fill="#222222" font-family="'Verdana'" font-size="12.5" lengthAdjust="spacing" textLength="104.9133" x="310.3229" y="124.6132">Publicar trabajos</text></g><!--link WebApp to MinIO--><g class="link" data-entity-1="ent0002" data-entity-2="ent0005" data-link-type="dependency" data-source-line="18" id="lnk11"><path d="M278.4792,135.0521 C382.5417,151.5521 642.4167,191.5313 861.1458,215.0938 C928.4688,222.3438 1002.7596,227.3395 1043.7909,229.8395" fill="none" id="WebApp-to-MinIO" style="stroke:#2196F3;stroke-width:3.125;"/><polygon fill="#2196F3" points="1048.9896,230.1563,1039.8853,225.4271,1043.7909,229.8395,1039.3785,233.7451,1048.9896,230.1563" style="stroke:#2196F3;stroke-width:3.125;stroke-linejoin:miter;stroke-miterlimit:10;"/><text fill="#222222" font-family="'Verdana'" font-size="12.5" lengthAdjust="spacing" textLength="121.9788" x="567.1858" y="158.9882">Almacenar escenas</text><text fill="#222222" font-family="'Verdana'" font-size="12.5" lengthAdjust="spacing" textLength="134.1003" x="561.125" y="173.539">Recuperar resultados</text></g><!--link RabbitMQ to Worker--><g class="link" data-entity-1="ent0004" data-entity-2="ent0006" data-link-type="dependency" data-source-line="20" id="lnk12"><path d="M529.2604,127.5938 C580.8854,127.5938 665.0625,127.5938 721.25,127.5938" fill="none" id="RabbitMQ-to-Worker" style="stroke:#2196F3;stroke-width:3.125;"/><polygon fill="#2196F3" points="726.4583,127.5938,717.0833,123.4271,721.25,127.5938,717.0833,131.7604,726.4583,127.5938" style="stroke:#2196F3;stroke-width:3.125;stroke-linejoin:miter;stroke-miterlimit:10;"/><text fill="#222222" font-family="'Verdana'" font-size="12.5" lengthAdjust="spacing" textLength="102.0081" x="577.2708" y="124.6132">Cola de trabajos</text></g><!--link Worker to PostgreSQL--><g class="link" data-entity-1="ent0006" data-entity-2="ent0003" data-link-type="dependency" data-source-line="22" id="lnk13"><path d="M830.0938,115.3333 C871.2917,105.0729 930.75,89.5417 981.9792,73.4271 C997.9792,68.3854 1010.3917,64.0859 1025.7771,58.4401" fill="none" id="Worker-to-PostgreSQL" style="stroke:#2196F3;stroke-width:3.125;"/><polygon fill="#2196F3" points="1030.6667,56.6458,1020.4301,55.9639,1025.7771,58.4401,1023.3009,63.7871,1030.6667,56.6458" style="stroke:#2196F3;stroke-width:3.125;stroke-linejoin:miter;stroke-miterlimit:10;"/><text fill="#222222" font-family="'Verdana'" font-size="12.5" lengthAdjust="spacing" textLength="108.5327" x="867.3958" y="70.4465">Actualizar estado</text></g><!--link Worker to MinIO--><g class="link" data-entity-1="ent0006" data-entity-2="ent0005" data-link-type="dependency" data-source-line="23" id="lnk14"><path d="M821.5313,150.9896 C834.0521,157.4167 847.9583,164.0417 861.1458,169.2604 C926.8646,195.2604 1002.6174,214.6207 1044.0965,224.3707" fill="none" id="Worker-to-MinIO" style="stroke:#2196F3;stroke-width:3.125;"/><polygon fill="#2196F3" points="1049.1667,225.5625,1040.9938,219.3612,1044.0965,224.3707,1039.087,227.4734,1049.1667,225.5625" style="stroke:#2196F3;stroke-width:3.125;stroke-linejoin:miter;stroke-miterlimit:10;"/><text fill="#222222" font-family="'Verdana'" font-size="12.5" lengthAdjust="spacing" textLength="119.0674" x="862.1875" y="151.6965">Descargar escenas</text><text fill="#222222" font-family="'Verdana'" font-size="12.5" lengthAdjust="spacing" textLength="101.77" x="870.8362" y="166.2473">Subir resultados</text></g><!--link Worker to Renderer--><g class="link" data-entity-1="ent0006" data-entity-2="ent0007" data-link-type="dependency" data-source-line="24" id="lnk15"><path d="M830.3958,129.8438 C840.5729,130.2083 851.1979,130.5208 861.1458,130.7188 C914.8333,131.7396 928.2813,131.6042 981.9792,130.7188 C992,130.5521 997.4085,130.433 1007.773,130.1309" fill="none" id="Worker-to-Renderer" style="stroke:#2196F3;stroke-width:3.125;"/><polygon fill="#2196F3" points="1012.9792,129.9792,1003.4868,126.0874,1007.773,130.1309,1003.7295,134.4172,1012.9792,129.9792" style="stroke:#2196F3;stroke-width:3.125;stroke-linejoin:miter;stroke-miterlimit:10;"/><text fill="#222222" font-family="'Verdana'" font-size="12.5" lengthAdjust="spacing" textLength="97.0459" x="873.125" y="127.7382">Ejecutar render</text></g><?plantuml-src PP2nKiCm38PtFONe14DVW86x7ErGZXnfIgyBYvo8r2MnWomFyFGu8QNfCVci_vFqsJTwv8wn8sMn1D3okw9w5DiS5MihNAdr3e0gzOBx44ci1wXyrtl7Jl709kjxg4d9K60iVD16UBTzXi_8aR4aOwpcMmXf0ZMCkNMRbzc4nS7B1yjjk5iW1VozpVEIlbIeOi6ys8nCoQvcIHHCHhXSFamgU8_bUlUAMR41c4f3UX5Bn6EvN-6JDs5Ed4rJNaJJsee4qs939t_5ZGz8KDPsoSebYiDmXZTNSXLxbbGI3h5LgbCh_0qUBSVt3Gw-9QpviWAcw9zjLccardwFcuQPS_9iiqeI9CtSPXUDlJAPjPs_C7MkJybQH-UXzWC0?></g></svg>