<svg xmlns="http://www.w3.org/2000/svg" xmlns:xlink="http://www.w3.org/1999/xlink" contentStyleType="text/css" data-diagram-type="SEQUENCE" height="1369px" preserveAspectRatio="none" style="width:941px;height:1369px;background:#FFFFFF;" version="1.1" viewBox="0 0 941 1369" width="941px" zoomAndPan="magnify"><?plantuml 1.2026.7beta1?><defs/><g><g class="title" data-source-line="1"><text fill="#000000" font-family="sans-serif" font-size="14" font-weight="700" lengthAdjust="spacing" textLength="486.3633" x="223.8555" y="27.9951">Flujo de comunicación del sistema distribuido de renderizado</text></g><g><title>Raytracer MPI</title><rect fill="#FFFFFF" height="29.1328" style="stroke:#181818;stroke-width:1;" width="10" x="869.2827" y="702.1172"/></g><g class="participant-lifeline" data-entity-uid="part1" data-qualified-name="Usuario" data-source-line="3" id="part1-lifeline"><g><title>Usuario</title><rect fill="#000000" fill-opacity="0.00000" height="1169.0469" width="8" x="30.6021" y="118.5938"/><line style="stroke:#181818;stroke-width:0.5;stroke-dasharray:5,5;" x1="34" x2="34" y1="118.5938" y2="1287.6406"/></g></g><g class="participant-lifeline" data-entity-uid="part2" data-qualified-name="Web" data-source-line="5" id="part2-lifeline"><g><title>WebApp</title><rect fill="#000000" fill-opacity="0.00000" height="1169.0469" width="8" x="214.3726" y="118.5938"/><line style="stroke:#181818;stroke-width:0.5;stroke-dasharray:5,5;" x1="218.0259" x2="218.0259" y1="118.5938" y2="1287.6406"/></g></g><g class="participant-lifeline" data-entity-uid="part3" data-qualified-name="DB" data-source-line="6" id="part3-lifeline"><g><title>PostgreSQL</title><rect fill="#000000" fill-opacity="0.00000" height="1169.0469" width="8" x="423.3687" y="118.5938"/><line style="stroke:#181818;stroke-width:0.5;stroke-dasharray:5,5;" x1="426.9922" x2="426.9922" y1="118.5938" y2="1287.6406"/></g></g><g class="participant-lifeline" data-entity-uid="part4" data-qualified-name="MQ" data-source-line="7" id="part4-lifeline"><g><title>RabbitMQ</title><rect fill="#000000" fill-opacity="0.00000" height="1169.0469" width="8" x="521.0239" y="118.5938"/><line style="stroke:#181818;stroke-width:0.5;stroke-dasharray:5,5;" x1="524.7451" x2="524.7451" y1="118.5938" y2="1287.6406"/></g></g><g class="participant-lifeline" data-entity-uid="part5" data-qualified-name="MinIO" data-source-line="8" id="part5-lifeline"><g><title>MinIO</title><rect fill="#000000" fill-opacity="0.00000" height="1169.0469" width="8" x="604.2979" y="118.5938"/><line style="stroke:#181818;stroke-width:0.5;stroke-dasharray:5,5;" x1="607.3027" x2="607.3027" y1="118.5938" y2="1287.6406"/></g></g><g class="participant-lifeline" data-entity-uid="part6" data-qualified-name="Worker" data-source-line="9" id="part6-lifeline"><g><title>Worker</title><rect fill="#000000" fill-opacity="0.00000" height="1169.0469" width="8" x="745.355" y="118.5938"/><line style="stroke:#181818;stroke-width:0.5;stroke-dasharray:5,5;" x1="749.0347" x2="749.0347" y1="118.5938" y2="1287.6406"/></g></g><g class="participant-lifeline" data-entity-uid="part7" data-qualified-name="Renderer" data-source-line="10" id="part7-lifeline"><g><title>Raytracer MPI</title><rect fill="#000000" fill-opacity="0.00000" height="1169.0469" width="8" x="870.2827" y="118.5938"/><line style="stroke:#181818;stroke-width:0.5;stroke-dasharray:5,5;" x1="873.4912" x2="873.4912" y1="118.5938" y2="1287.6406"/></g></g><g class="participant participant-head" data-entity-uid="part1" data-qualified-name="Usuario" data-source-line="3" id="part1-head"><text fill="#000000" font-family="sans-serif" font-size="14" lengthAdjust="spacing" textLength="53.2041" x="5" y="115.292">Usuario</text><ellipse cx="34.6021" cy="50.7969" fill="#E2E2F0" rx="8" ry="8" style="stroke:#181818;stroke-width:0.5;"/><path d="M34.6021,58.7969 L34.6021,85.7969 M21.6021,66.7969 L47.6021,66.7969 M34.6021,85.7969 L21.6021,100.7969 M34.6021,85.7969 L47.6021,100.7969" fill="none" style="stroke:#181818;stroke-width:0.5;"/></g><g class="participant participant-tail" data-entity-uid="part1" data-qualified-name="Usuario" data-source-line="3" id="part1-tail"><text fill="#000000" font-family="sans-serif" font-size="14" lengthAdjust="spacing" textLength="53.2041" x="5" y="1299.6357">Usuario</text><ellipse cx="34.6021" cy="1311.4375" fill="#E2E2F0" rx="8" ry="8" style="stroke:#181818;stroke-width:0.5;"/><path d="M34.6021,1319.4375 L34.6021,1346.4375 M21.6021,1327.4375 L47.6021,1327.4375 M34.6021,1346.4375 L21.6021,1361.4375 M34.6021,1346.4375 L47.6021,1361.4375" fill="none" style="stroke:#181818;stroke-width:0.5;"/></g><g class="participant participant-head" data-entity-uid="part2" data-qualified-name="Web" data-source-line="5" id="part2-head"><rect fill="#E2E2F0" height="30.2969" rx="2.5" ry="2.5" style="stroke:#181818;stroke-width:0.5;" width="72.6934" x="182.0259" y="87.2969"/><text fill="#000000" font-family="sans-serif" font-size="14" lengthAdjust="spacing" textLength="58.6934" x="189.0259" y="107.292">WebApp</text></g><g class="participant participant-tail" data-entity-uid="part2" data-qualified-name="Web" data-source-line="5" id="part2-tail"><rect fill="#E2E2F0" height="30.2969" rx="2.5" ry="2.5" style="stroke:#181818;stroke-width:0.5;" width="72.6934" x="182.0259" y="1286.6406"/><text fill="#000000" font-family="sans-serif" font-size="14" lengthAdjust="spacing" textLength="58.6934" x="189.0259" y="1306.6357">WebApp</text></g><g class="participant participant-head" data-entity-uid="part3" data-qualified-name="DB" data-source-line="6" id="part3-head"><text fill="#000000" font-family="sans-serif" font-size="14" lengthAdjust="spacing" textLength="80.7529" x="383.9922" y="115.292">PostgreSQL</text><path d="M409.3687,66.2969 C409.3687,56.2969 427.3687,56.2969 427.3687,56.2969 C427.3687,56.2969 445.3687,56.2969 445.3687,66.2969 L445.3687,92.2969 C445.3687,102.2969 427.3687,102.2969 427.3687,102.2969 C427.3687,102.2969 409.3687,102.2969 409.3687,92.2969 L409.3687,66.2969" fill="#E2E2F0" style="stroke:#181818;stroke-width:0.5;"/><path d="M409.3687,66.2969 C409.3687,76.2969 427.3687,76.2969 427.3687,76.2969 C427.3687,76.2969 445.3687,76.2969 445.3687,66.2969" fill="none" style="stroke:#181818;stroke-width:0.5;"/></g><g class="participant participant-tail" data-entity-uid="part3" data-qualified-name="DB" data-source-line="6" id="part3-tail"><text fill="#000000" font-family="sans-serif" font-size="14" lengthAdjust="spacing" textLength="80.7529" x="383.9922" y="1299.6357">PostgreSQL</text><path d="M409.3687,1312.9375 C409.3687,1302.9375 427.3687,1302.9375 427.3687,1302.9375 C427.3687,1302.9375 445.3687,1302.9375 445.3687,1312.9375 L445.3687,1338.9375 C445.3687,1348.9375 427.3687,1348.9375 427.3687,1348.9375 C427.3687,1348.9375 409.3687,1348.9375 409.3687,1338.9375 L409.3687,1312.9375" fill="#E2E2F0" style="stroke:#181818;stroke-width:0.5;"/><path d="M409.3687,1312.9375 C409.3687,1322.9375 427.3687,1322.9375 427.3687,1322.9375 C427.3687,1322.9375 445.3687,1322.9375 445.3687,1312.9375" fill="none" style="stroke:#181818;stroke-width:0.5;"/></g><g class="participant participant-head" data-entity-uid="part4" data-qualified-name="MQ" data-source-line="7" id="part4-head"><path d="M485.7451,92.2969 L564.3027,92.2969 C569.3027,92.2969 569.3027,105.4453 569.3027,105.4453 C569.3027,105.4453 569.3027,118.5938 564.3027,118.5938 L485.7451,118.5938 C480.7451,118.5938 480.7451,105.4453 480.7451,105.4453 C480.7451,105.4453 480.7451,92.2969 485.7451,92.2969" fill="#E2E2F0" style="stroke:#181818;stroke-width:0.5;"/><path d="M564.3027,92.2969 C559.3027,92.2969 559.3027,105.4453 559.3027,105.4453 C559.3027,118.5938 564.3027,118.5938 564.3027,118.5938" fill="none" style="stroke:#181818;stroke-width:0.5;"/><text fill="#000000" font-family="sans-serif" font-size="14" lengthAdjust="spacing" textLength="68.5576" x="485.7451" y="110.292">RabbitMQ</text></g><g class="participant participant-tail" data-entity-uid="part4" data-qualified-name="MQ" data-source-line="7" id="part4-tail"><path d="M485.7451,1286.6406 L564.3027,1286.6406 C569.3027,1286.6406 569.3027,1299.7891 569.3027,1299.7891 C569.3027,1299.7891 569.3027,1312.9375 564.3027,1312.9375 L485.7451,1312.9375 C480.7451,1312.9375 480.7451,1299.7891 480.7451,1299.7891 C480.7451,1299.7891 480.7451,1286.6406 485.7451,1286.6406" fill="#E2E2F0" style="stroke:#181818;stroke-width:0.5;"/><path d="M564.3027,1286.6406 C559.3027,1286.6406 559.3027,1299.7891 559.3027,1299.7891 C559.3027,1312.9375 564.3027,1312.9375 564.3027,1312.9375" fill="none" style="stroke:#181818;stroke-width:0.5;"/><text fill="#000000" font-family="sans-serif" font-size="14" lengthAdjust="spacing" textLength="68.5576" x="485.7451" y="1304.6357">RabbitMQ</text></g><g class="participant participant-head" data-entity-uid="part5" data-qualified-name="MinIO" data-source-line="8" id="part5-head"><rect fill="#E2E2F0" height="30.2969" style="stroke:#181818;stroke-width:0.5;" width="53.9902" x="583.3027" y="83.2969"/><rect fill="#E2E2F0" height="30.2969" style="stroke:#181818;stroke-width:0.5;" width="53.9902" x="579.3027" y="87.2969"/><text fill="#000000" font-family="sans-serif" font-size="14" lengthAdjust="spacing" textLength="39.9902" x="586.3027" y="107.292">MinIO</text></g><g class="participant participant-tail" data-entity-uid="part5" data-qualified-name="MinIO" data-source-line="8" id="part5-tail"><rect fill="#E2E2F0" height="30.2969" style="stroke:#181818;stroke-width:0.5;" width="53.9902" x="583.3027" y="1286.6406"/><rect fill="#E2E2F0" height="30.2969" style="stroke:#181818;stroke-width:0.5;" width="53.9902" x="579.3027" y="1290.6406"/><text fill="#000000" font-family="sans-serif" font-size="14" lengthAdjust="spacing" textLength="39.9902" x="586.3027" y="1310.6357">MinIO</text></g><g class="participant participant-head" data-entity-uid="part6" data-qualified-name="Worker" data-source-line="9" id="part6-head"><rect fill="#E2E2F0" height="30.2969" rx="2.5" ry="2.5" style="stroke:#181818;stroke-width:0.5;" width="64.6406" x="717.0347" y="87.2969"/><text fill="#000000" font-family="sans-serif" font-size="14" lengthAdjust="spacing" textLength="50.6406" x="724.0347" y="107.292">Worker</text></g><g class="participant participant-tail" data-entity-uid="part6" data-qualified-name="Worker" data-source-line="9" id="part6-tail"><rect fill="#E2E2F0" height="30.2969" rx="2.5" ry="2.5" style="stroke:#181818;stroke-width:0.5;" width="64.6406" x="717.0347" y="1286.6406"/><text fill="#000000" font-family="sans-serif" font-size="14" lengthAdjust="spacing" textLength="50.6406" x="724.0347" y="1306.6357">Worker</text></g><g class="participant participant-head" data-entity-uid="part7" data-qualified-name="Renderer" data-source-line="10" id="part7-head"><rect fill="#E2E2F0" height="30.2969" rx="2.5" ry="2.5" style="stroke:#181818;stroke-width:0.5;" width="111.583" x="818.4912" y="87.2969"/><text fill="#000000" font-family="sans-serif" font-size="14" lengthAdjust="spacing" textLength="97.583" x="825.4912" y="107.292">Raytracer MPI</text></g><g class="participant participant-tail" data-entity-uid="part7" data-qualified-name="Renderer" data-source-line="10" id="part7-tail"><rect fill="#E2E2F0" height="30.2969" rx="2.5" ry="2.5" style="stroke:#181818;stroke-width:0.5;" width="111.583" x="818.4912" y="1286.6406"/><text fill="#000000" font-family="sans-serif" font-size="14" lengthAdjust="spacing" textLength="97.583" x="825.4912" y="1306.6357">Raytracer MPI</text></g><g><title>Raytracer MPI</title><rect fill="#FFFFFF" height="29.1328" style="stroke:#181818;stroke-width:1;" width="10" x="869.2827" y="702.1172"/></g><rect fill="#EEEEEE" height="3" style="stroke:#EEEEEE;stroke-width:1;" width="935.0742" x="0" y="149.1602"/><line style="stroke:#000000;stroke-width:1;" x1="0" x2="935.0742" y1="149.1602" y2="149.1602"/><line style="stroke:#000000;stroke-width:1;" x1="0" x2="935.0742" y1="152.1602" y2="152.1602"/><rect fill="#EEEEEE" height="23.1328" style="stroke:#000000;stroke-width:2;" width="166.9087" x="384.0828" y="138.5938"/><text fill="#000000" font-family="sans-serif" font-size="13" font-weight="700" lengthAdjust="spacing" textLength="148.3828" x="390.0828" y="154.6606">Creación del trabajo</text><g class="message" data-entity-1="part1" data-entity-2="part2" data-source-line="14" id="msg1"><polygon fill="#181818" points="206.3726,188.8594,216.3726,192.8594,206.3726,196.8594,210.3726,192.8594" style="stroke:#181818;stroke-width:1;stroke-linejoin:miter;stroke-miterlimit:10;"/><line style="stroke:#181818;stroke-width:1;" x1="34.6021" x2="212.3726" y1="192.8594" y2="192.8594"/><text fill="#000000" font-family="sans-serif" font-size="13" lengthAdjust="spacing" textLength="110.1636" x="41.6021" y="187.7935">POST /api/render</text></g><g class="message" data-entity-1="part2" data-entity-2="part5" data-source-line="16" id="msg2"><polygon fill="#181818" points="596.2979,217.9922,606.2979,221.9922,596.2979,225.9922,600.2979,221.9922" style="stroke:#181818;stroke-width:1;stroke-linejoin:miter;stroke-miterlimit:10;"/><line style="stroke:#181818;stroke-width:1;" x1="218.3726" x2="602.2979" y1="221.9922" y2="221.9922"/><text fill="#000000" font-family="sans-serif" font-size="13" lengthAdjust="spacing" textLength="134.3291" x="225.3726" y="216.9263">Upload escena (.glb)</text></g><g class="message" data-entity-1="part5" data-entity-2="part2" data-source-line="17" id="msg3"><polygon fill="#181818" points="229.3726,247.125,219.3726,251.125,229.3726,255.125,225.3726,251.125" style="stroke:#181818;stroke-width:1;stroke-linejoin:miter;stroke-miterlimit:10;"/><line style="stroke:#181818;stroke-width:1;stroke-dasharray:2,2;" x1="223.3726" x2="607.2979" y1="251.125" y2="251.125"/><text fill="#000000" font-family="sans-serif" font-size="13" lengthAdjust="spacing" textLength="69.7798" x="235.3726" y="246.0591">object_key</text></g><g class="message" data-entity-1="part2" data-entity-2="part3" data-source-line="19" id="msg4"><polygon fill="#181818" points="415.3687,276.2578,425.3687,280.2578,415.3687,284.2578,419.3687,280.2578" style="stroke:#181818;stroke-width:1;stroke-linejoin:miter;stroke-miterlimit:10;"/><line style="stroke:#181818;stroke-width:1;" x1="218.3726" x2="421.3687" y1="280.2578" y2="280.2578"/><text fill="#000000" font-family="sans-serif" font-size="13" lengthAdjust="spacing" textLength="184.9961" x="225.3726" y="275.1919">INSERT Job(status=pending)</text></g><g class="message" data-entity-1="part3" data-entity-2="part2" data-source-line="20" id="msg5"><polygon fill="#181818" points="229.3726,305.3906,219.3726,309.3906,229.3726,313.3906,225.3726,309.3906" style="stroke:#181818;stroke-width:1;stroke-linejoin:miter;stroke-miterlimit:10;"/><line style="stroke:#181818;stroke-width:1;stroke-dasharray:2,2;" x1="223.3726" x2="426.3687" y1="309.3906" y2="309.3906"/><text fill="#000000" font-family="sans-serif" font-size="13" lengthAdjust="spacing" textLength="38.1812" x="235.3726" y="304.3247">job_id</text></g><g class="message" data-entity-1="part2" data-entity-2="part4" data-source-line="22" id="msg6"><polygon fill="#181818" points="513.0239,334.5234,523.0239,338.5234,513.0239,342.5234,517.0239,338.5234" style="stroke:#181818;stroke-width:1;stroke-linejoin:miter;stroke-miterlimit:10;"/><line style="stroke:#181818;stroke-width:1;" x1="218.3726" x2="519.0239" y1="338.5234" y2="338.5234"/><text fill="#000000" font-family="sans-serif" font-size="13" lengthAdjust="spacing" textLength="165.9277" x="225.3726" y="333.4575">Publish RenderJob(job_id)</text></g><g class="message" data-entity-1="part4" data-entity-2="part2" data-source-line="23" id="msg7"><polygon fill="#181818" points="229.3726,363.6563,219.3726,367.6563,229.3726,371.6563,225.3726,367.6563" style="stroke:#181818;stroke-width:1;stroke-linejoin:miter;stroke-miterlimit:10;"/><line style="stroke:#181818;stroke-width:1;stroke-dasharray:2,2;" x1="223.3726" x2="524.0239" y1="367.6563" y2="367.6563"/><text fill="#000000" font-family="sans-serif" font-size="13" lengthAdjust="spacing" textLength="86.3853" x="235.3726" y="362.5903">Confirmación</text></g><g class="message" data-entity-1="part2" data-entity-2="part3" data-source-line="25" id="msg8"><polygon fill="#181818" points="415.3687,392.7891,425.3687,396.7891,415.3687,400.7891,419.3687,396.7891" style="stroke:#181818;stroke-width:1;stroke-linejoin:miter;stroke-miterlimit:10;"/><line style="stroke:#181818;stroke-width:1;" x1="218.3726" x2="421.3687" y1="396.7891" y2="396.7891"/><text fill="#000000" font-family="sans-serif" font-size="13" lengthAdjust="spacing" textLength="156.3618" x="225.3726" y="391.7231">UPDATE status=queued</text></g><g class="message" data-entity-1="part3" data-entity-2="part2" data-source-line="26" id="msg9"><polygon fill="#181818" points="229.3726,421.9219,219.3726,425.9219,229.3726,429.9219,225.3726,425.9219" style="stroke:#181818;stroke-width:1;stroke-linejoin:miter;stroke-miterlimit:10;"/><line style="stroke:#181818;stroke-width:1;stroke-dasharray:2,2;" x1="223.3726" x2="426.3687" y1="425.9219" y2="425.9219"/><text fill="#000000" font-family="sans-serif" font-size="13" lengthAdjust="spacing" textLength="18.7573" x="235.3726" y="420.856">OK</text></g><g class="message" data-entity-1="part2" data-entity-2="part1" data-source-line="28" id="msg10"><polygon fill="#181818" points="45.6021,451.0547,35.6021,455.0547,45.6021,459.0547,41.6021,455.0547" style="stroke:#181818;stroke-width:1;stroke-linejoin:miter;stroke-miterlimit:10;"/><line style="stroke:#181818;stroke-width:1;stroke-dasharray:2,2;" x1="39.6021" x2="217.3726" y1="455.0547" y2="455.0547"/><text fill="#000000" font-family="sans-serif" font-size="13" lengthAdjust="spacing" textLength="121.291" x="51.6021" y="449.9888">Job creado (job_id)</text></g><rect fill="#EEEEEE" height="3" style="stroke:#EEEEEE;stroke-width:1;" width="935.0742" x="0" y="483.6211"/><line style="stroke:#000000;stroke-width:1;" x1="0" x2="935.0742" y1="483.6211" y2="483.6211"/><line style="stroke:#000000;stroke-width:1;" x1="0" x2="935.0742" y1="486.6211" y2="486.6211"/><rect fill="#EEEEEE" height="23.1328" style="stroke:#000000;stroke-width:2;" width="127.6484" x="403.7129" y="473.0547"/><text fill="#000000" font-family="sans-serif" font-size="13" font-weight="700" lengthAdjust="spacing" textLength="109.1226" x="409.7129" y="489.1216">Procesamiento</text><g class="message" data-entity-1="part6" data-entity-2="part4" data-source-line="32" id="msg11"><polygon fill="#181818" points="536.0239,523.3203,526.0239,527.3203,536.0239,531.3203,532.0239,527.3203" style="stroke:#181818;stroke-width:1;stroke-linejoin:miter;stroke-miterlimit:10;"/><line style="stroke:#181818;stroke-width:1;" x1="530.0239" x2="748.355" y1="527.3203" y2="527.3203"/><text fill="#000000" font-family="sans-serif" font-size="13" lengthAdjust="spacing" textLength="102.9209" x="542.0239" y="522.2544">Solicitar trabajo</text></g><g class="message" data-entity-1="part4" data-entity-2="part6" data-source-line="33" id="msg12"><polygon fill="#181818" points="737.355,552.4531,747.355,556.4531,737.355,560.4531,741.355,556.4531" style="stroke:#181818;stroke-width:1;stroke-linejoin:miter;stroke-miterlimit:10;"/><line style="stroke:#181818;stroke-width:1;stroke-dasharray:2,2;" x1="525.0239" x2="743.355" y1="556.4531" y2="556.4531"/><text fill="#000000" font-family="sans-serif" font-size="13" lengthAdjust="spacing" textLength="115.229" x="532.0239" y="551.3872">RenderJob(job_id)</text></g><g class="message" data-entity-1="part6" data-entity-2="part2" data-source-line="35" id="msg13"><polygon fill="#181818" points="229.3726,581.5859,219.3726,585.5859,229.3726,589.5859,225.3726,585.5859" style="stroke:#181818;stroke-width:1;stroke-linejoin:miter;stroke-miterlimit:10;"/><line style="stroke:#181818;stroke-width:1;" x1="223.3726" x2="748.355" y1="585.5859" y2="585.5859"/><text fill="#000000" font-family="sans-serif" font-size="13" lengthAdjust="spacing" textLength="161.7764" x="235.3726" y="580.52">PATCH status=rendering</text></g><g class="message" data-entity-1="part2" data-entity-2="part6" data-source-line="36" id="msg14"><polygon fill="#181818" points="737.355,610.7188,747.355,614.7188,737.355,618.7188,741.355,614.7188" style="stroke:#181818;stroke-width:1;stroke-linejoin:miter;stroke-miterlimit:10;"/><line style="stroke:#181818;stroke-width:1;stroke-dasharray:2,2;" x1="218.3726" x2="743.355" y1="614.7188" y2="614.7188"/><text fill="#000000" font-family="sans-serif" font-size="13" lengthAdjust="spacing" textLength="18.7573" x="225.3726" y="609.6528">OK</text></g><g class="message" data-entity-1="part6" data-entity-2="part5" data-source-line="38" id="msg15"><polygon fill="#181818" points="619.2979,639.8516,609.2979,643.8516,619.2979,647.8516,615.2979,643.8516" style="stroke:#181818;stroke-width:1;stroke-linejoin:miter;stroke-miterlimit:10;"/><line style="stroke:#181818;stroke-width:1;" x1="613.2979" x2="748.355" y1="643.8516" y2="643.8516"/><text fill="#000000" font-family="sans-serif" font-size="13" lengthAdjust="spacing" textLength="117.0571" x="625.2979" y="638.7856">Descargar escena</text></g><g class="message" data-entity-1="part5" data-entity-2="part6" data-source-line="39" id="msg16"><polygon fill="#181818" points="737.355,668.9844,747.355,672.9844,737.355,676.9844,741.355,672.9844" style="stroke:#181818;stroke-width:1;stroke-linejoin:miter;stroke-miterlimit:10;"/><line style="stroke:#181818;stroke-width:1;stroke-dasharray:2,2;" x1="608.2979" x2="743.355" y1="672.9844" y2="672.9844"/><text fill="#000000" font-family="sans-serif" font-size="13" lengthAdjust="spacing" textLength="62.4038" x="615.2979" y="667.9185">scene.glb</text></g><g class="message" data-entity-1="part6" data-entity-2="part7" data-source-line="41" id="msg17"><polygon fill="#181818" points="857.2827,698.1172,867.2827,702.1172,857.2827,706.1172,861.2827,702.1172" style="stroke:#181818;stroke-width:1;stroke-linejoin:miter;stroke-miterlimit:10;"/><line style="stroke:#181818;stroke-width:1;" x1="749.355" x2="863.2827" y1="702.1172" y2="702.1172"/><text fill="#000000" font-family="sans-serif" font-size="13" lengthAdjust="spacing" textLength="100.9277" x="756.355" y="697.0513">Ejecutar render</text></g><g class="message" data-entity-1="part7" data-entity-2="part6" data-source-line="44" id="msg18"><polygon fill="#181818" points="760.355,727.25,750.355,731.25,760.355,735.25,756.355,731.25" style="stroke:#181818;stroke-width:1;stroke-linejoin:miter;stroke-miterlimit:10;"/><line style="stroke:#181818;stroke-width:1;stroke-dasharray:2,2;" x1="754.355" x2="873.2827" y1="731.25" y2="731.25"/><text fill="#000000" font-family="sans-serif" font-size="13" lengthAdjust="spacing" textLength="71.7539" x="766.355" y="726.1841">output.png</text></g><g class="message" data-entity-1="part6" data-entity-2="part5" data-source-line="47" id="msg19"><polygon fill="#181818" points="619.2979,756.3828,609.2979,760.3828,619.2979,764.3828,615.2979,760.3828" style="stroke:#181818;stroke-width:1;stroke-linejoin:miter;stroke-miterlimit:10;"/><line style="stroke:#181818;stroke-width:1;" x1="613.2979" x2="748.355" y1="760.3828" y2="760.3828"/><text fill="#000000" font-family="sans-serif" font-size="13" lengthAdjust="spacing" textLength="99.0679" x="625.2979" y="755.3169">Subir resultado</text></g><g class="message" data-entity-1="part5" data-entity-2="part6" data-source-line="48" id="msg20"><polygon fill="#181818" points="737.355,785.5156,747.355,789.5156,737.355,793.5156,741.355,789.5156" style="stroke:#181818;stroke-width:1;stroke-linejoin:miter;stroke-miterlimit:10;"/><line style="stroke:#181818;stroke-width:1;stroke-dasharray:2,2;" x1="608.2979" x2="743.355" y1="789.5156" y2="789.5156"/><text fill="#000000" font-family="sans-serif" font-size="13" lengthAdjust="spacing" textLength="103.6191" x="615.2979" y="784.4497">resultObjectKey</text></g><g class="message" data-entity-1="part6" data-entity-2="part2" data-source-line="50" id="msg21"><polygon fill="#181818" points="229.3726,829.7813,219.3726,833.7813,229.3726,837.7813,225.3726,833.7813" style="stroke:#181818;stroke-width:1;stroke-linejoin:miter;stroke-miterlimit:10;"/><line style="stroke:#181818;stroke-width:1;" x1="223.3726" x2="748.355" y1="833.7813" y2="833.7813"/><text fill="#000000" font-family="sans-serif" font-size="13" lengthAdjust="spacing" textLength="171.6025" x="235.3726" y="813.5825">PATCH status=completed,</text><text fill="#000000" font-family="sans-serif" font-size="13" lengthAdjust="spacing" textLength="103.6191" x="235.3726" y="828.7153">resultObjectKey</text></g><g class="message" data-entity-1="part2" data-entity-2="part6" data-source-line="51" id="msg22"><polygon fill="#181818" points="737.355,858.9141,747.355,862.9141,737.355,866.9141,741.355,862.9141" style="stroke:#181818;stroke-width:1;stroke-linejoin:miter;stroke-miterlimit:10;"/><line style="stroke:#181818;stroke-width:1;stroke-dasharray:2,2;" x1="218.3726" x2="743.355" y1="862.9141" y2="862.9141"/><text fill="#000000" font-family="sans-serif" font-size="13" lengthAdjust="spacing" textLength="18.7573" x="225.3726" y="857.8481">OK</text></g><g class="message" data-entity-1="part6" data-entity-2="part4" data-source-line="53" id="msg23"><polygon fill="#181818" points="536.0239,888.0469,526.0239,892.0469,536.0239,896.0469,532.0239,892.0469" style="stroke:#181818;stroke-width:1;stroke-linejoin:miter;stroke-miterlimit:10;"/><line style="stroke:#181818;stroke-width:1;" x1="530.0239" x2="748.355" y1="892.0469" y2="892.0469"/><text fill="#000000" font-family="sans-serif" font-size="13" lengthAdjust="spacing" textLength="85.8774" x="542.0239" y="886.981">ACK mensaje</text></g><rect fill="#EEEEEE" height="3" style="stroke:#EEEEEE;stroke-width:1;" width="935.0742" x="0" y="920.6133"/><line style="stroke:#000000;stroke-width:1;" x1="0" x2="935.0742" y1="920.6133" y2="920.6133"/><line style="stroke:#000000;stroke-width:1;" x1="0" x2="935.0742" y1="923.6133" y2="923.6133"/><rect fill="#EEEEEE" height="23.1328" style="stroke:#000000;stroke-width:2;" width="159.6406" x="387.7168" y="910.0469"/><text fill="#000000" font-family="sans-serif" font-size="13" font-weight="700" lengthAdjust="spacing" textLength="141.1147" x="393.7168" y="926.1138">Consulta de estado</text><g class="message" data-entity-1="part1" data-entity-2="part2" data-source-line="57" id="msg24"><polygon fill="#181818" points="206.3726,960.3125,216.3726,964.3125,206.3726,968.3125,210.3726,964.3125" style="stroke:#181818;stroke-width:1;stroke-linejoin:miter;stroke-miterlimit:10;"/><line style="stroke:#181818;stroke-width:1;" x1="34.6021" x2="212.3726" y1="964.3125" y2="964.3125"/><text fill="#000000" font-family="sans-serif" font-size="13" lengthAdjust="spacing" textLength="118.3267" x="41.6021" y="959.2466">GET /api/jobs/{id}</text></g><g class="message" data-entity-1="part2" data-entity-2="part3" data-source-line="59" id="msg25"><polygon fill="#181818" points="415.3687,989.4453,425.3687,993.4453,415.3687,997.4453,419.3687,993.4453" style="stroke:#181818;stroke-width:1;stroke-linejoin:miter;stroke-miterlimit:10;"/><line style="stroke:#181818;stroke-width:1;" x1="218.3726" x2="421.3687" y1="993.4453" y2="993.4453"/><text fill="#000000" font-family="sans-serif" font-size="13" lengthAdjust="spacing" textLength="93.0186" x="225.3726" y="988.3794">SELECT status</text></g><g class="message" data-entity-1="part3" data-entity-2="part2" data-source-line="60" id="msg26"><polygon fill="#181818" points="229.3726,1018.5781,219.3726,1022.5781,229.3726,1026.5781,225.3726,1022.5781" style="stroke:#181818;stroke-width:1;stroke-linejoin:miter;stroke-miterlimit:10;"/><line style="stroke:#181818;stroke-width:1;stroke-dasharray:2,2;" x1="223.3726" x2="426.3687" y1="1022.5781" y2="1022.5781"/><text fill="#000000" font-family="sans-serif" font-size="13" lengthAdjust="spacing" textLength="44.04" x="235.3726" y="1017.5122">estado</text></g><g class="message" data-entity-1="part2" data-entity-2="part1" data-source-line="62" id="msg27"><polygon fill="#181818" points="45.6021,1047.7109,35.6021,1051.7109,45.6021,1055.7109,41.6021,1051.7109" style="stroke:#181818;stroke-width:1;stroke-linejoin:miter;stroke-miterlimit:10;"/><line style="stroke:#181818;stroke-width:1;stroke-dasharray:2,2;" x1="39.6021" x2="217.3726" y1="1051.7109" y2="1051.7109"/><text fill="#000000" font-family="sans-serif" font-size="13" lengthAdjust="spacing" textLength="88.2007" x="51.6021" y="1046.645">estado actual</text></g><rect fill="#EEEEEE" height="3" style="stroke:#EEEEEE;stroke-width:1;" width="935.0742" x="0" y="1080.2773"/><line style="stroke:#000000;stroke-width:1;" x1="0" x2="935.0742" y1="1080.2773" y2="1080.2773"/><line style="stroke:#000000;stroke-width:1;" x1="0" x2="935.0742" y1="1083.2773" y2="1083.2773"/><rect fill="#EEEEEE" height="23.1328" style="stroke:#000000;stroke-width:2;" width="188.3701" x="373.3521" y="1069.7109"/><text fill="#000000" font-family="sans-serif" font-size="13" font-weight="700" lengthAdjust="spacing" textLength="169.8442" x="379.3521" y="1085.7778">Descarga del resultado</text><g class="message" data-entity-1="part1" data-entity-2="part2" data-source-line="66" id="msg28"><polygon fill="#181818" points="206.3726,1119.9766,216.3726,1123.9766,206.3726,1127.9766,210.3726,1123.9766" style="stroke:#181818;stroke-width:1;stroke-linejoin:miter;stroke-miterlimit:10;"/><line style="stroke:#181818;stroke-width:1;" x1="34.6021" x2="212.3726" y1="1123.9766" y2="1123.9766"/><text fill="#000000" font-family="sans-serif" font-size="13" lengthAdjust="spacing" textLength="159.7705" x="41.6021" y="1118.9106">GET /api/jobs/{id}/result</text></g><g class="message" data-entity-1="part2" data-entity-2="part3" data-source-line="68" id="msg29"><polygon fill="#181818" points="415.3687,1149.1094,425.3687,1153.1094,415.3687,1157.1094,419.3687,1153.1094" style="stroke:#181818;stroke-width:1;stroke-linejoin:miter;stroke-miterlimit:10;"/><line style="stroke:#181818;stroke-width:1;" x1="218.3726" x2="421.3687" y1="1153.1094" y2="1153.1094"/><text fill="#000000" font-family="sans-serif" font-size="13" lengthAdjust="spacing" textLength="156.6919" x="225.3726" y="1148.0435">SELECT resultObjectKey</text></g><g class="message" data-entity-1="part3" data-entity-2="part2" data-source-line="69" id="msg30"><polygon fill="#181818" points="229.3726,1178.2422,219.3726,1182.2422,229.3726,1186.2422,225.3726,1182.2422" style="stroke:#181818;stroke-width:1;stroke-linejoin:miter;stroke-miterlimit:10;"/><line style="stroke:#181818;stroke-width:1;stroke-dasharray:2,2;" x1="223.3726" x2="426.3687" y1="1182.2422" y2="1182.2422"/><text fill="#000000" font-family="sans-serif" font-size="13" lengthAdjust="spacing" textLength="23.2197" x="235.3726" y="1177.1763">key</text></g><g class="message" data-entity-1="part2" data-entity-2="part5" data-source-line="71" id="msg31"><polygon fill="#181818" points="596.2979,1207.375,606.2979,1211.375,596.2979,1215.375,600.2979,1211.375" style="stroke:#181818;stroke-width:1;stroke-linejoin:miter;stroke-miterlimit:10;"/><line style="stroke:#181818;stroke-width:1;" x1="218.3726" x2="602.2979" y1="1211.375" y2="1211.375"/><text fill="#000000" font-family="sans-serif" font-size="13" lengthAdjust="spacing" textLength="84.9316" x="225.3726" y="1206.3091">Obtener PNG</text></g><g class="message" data-entity-1="part5" data-entity-2="part2" data-source-line="72" id="msg32"><polygon fill="#181818" points="229.3726,1236.5078,219.3726,1240.5078,229.3726,1244.5078,225.3726,1240.5078" style="stroke:#181818;stroke-width:1;stroke-linejoin:miter;stroke-miterlimit:10;"/><line style="stroke:#181818;stroke-width:1;stroke-dasharray:2,2;" x1="223.3726" x2="607.2979" y1="1240.5078" y2="1240.5078"/><text fill="#000000" font-family="sans-serif" font-size="13" lengthAdjust="spacing" textLength="80.6533" x="235.3726" y="1235.4419">Archivo PNG</text></g><g class="message" data-entity-1="part2" data-entity-2="part1" data-source-line="74" id="msg33"><polygon fill="#181818" points="45.6021,1265.6406,35.6021,1269.6406,45.6021,1273.6406,41.6021,1269.6406" style="stroke:#181818;stroke-width:1;stroke-linejoin:miter;stroke-miterlimit:10;"/><line style="stroke:#181818;stroke-width:1;stroke-dasharray:2,2;" x1="39.6021" x2="217.3726" y1="1269.6406" y2="1269.6406"/><text fill="#000000" font-family="sans-serif" font-size="13" lengthAdjust="spacing" textLength="146.8403" x="51.6021" y="1264.5747">Resultado renderizado</text></g><?plantuml-src ZLHBRjim4Dth58HN2T34UmCkuDXkwYQE_-YcG32KfWuTcLJv2P0MFLMFq8jrI4gov0XjLw8ud_TctWoji3co3xaxA9OXIzNHIP52Adx_adIHCoECnIEmZBvQS2UouAXHPgZ5TyXKaa1gbMOxuq0B-Yr0Mv6A0gHblS_8HqNHOs0O7PCCB70mo7fBPUnUusPr7uoJc-IRGqU6DN0kx7mLhkUh95LvZgaLIXhMcmivMqIBFvrXAVsCEcA5OzkyXbUh8KNDvijPy5g7AiWl6GxPM6EZRlBaG4qP3fEah8nTlVSri05RBZPRreT2z6CVaiJVapcG8eTTaIl869eK9R2BwttEBvDelAgpA7wWkXwVyRMEdzpG_UnXCrrlsIV5Bum5wyom81GXzvS9sK_n1yKVHNR2NdbcZkV2F9ML-HJHYz1NZT2nab-5FiPws-YxvMIqdR8IEMYIjN4NTsK4tLIj6NYwBAKMqdpKcBwjIwrID70KA6riPzIcfhnHEKbaGLSzhwb6lq57COqSfIAZxVXZHReSJhclQTQf0lSJVYdNX8G2lISAKR6cL5MaDw0NifcW6Y2oJqbCvwkeHeAsGho0nTEKrTwjnChPmjdhWkXc-3QeW-x6SU5nZCkjNy0Ejj6u21Ds5mRiRmsZjIzoj9Yz-oBF8__LGY_XQ7p7ZYWD732k4ksgv-PV2ZIUO_SUtKxBDI9TJV-7o7wsPt4plP-EjoNBzX36j5s3M09I9ntaWKubRrZikct_IwaV8pgPdJUhHR6vs9Lq2svfZ3HRFjo-UGz6EdqIBohOEkfQryGRZ-yV?></g></svg>