<svg xmlns="http://www.w3.org/2000/svg" xmlns:xlink="http://www.w3.org/1999/xlink" contentStyleType="text/css" data-diagram-type="SEQUENCE" height="858px" preserveAspectRatio="none" style="width:863px;height:858px;background:#FFFFFF;" version="1.1" viewBox="0 0 863 858" width="863px" zoomAndPan="magnify"><?plantuml 1.2026.4beta2?><defs/><g><g class="title" data-source-line="1"><text fill="#000000" font-family="sans-serif" font-size="14" font-weight="700" lengthAdjust="spacing" textLength="307.1387" x="274.8853" y="27.9951">Flujo de mensajes - Render Distribuido</text></g><g class="participant-lifeline" data-entity-uid="part1" data-qualified-name="Usuario" data-source-line="3" id="part1-lifeline"><g><title>Usuario</title><rect fill="#000000" fill-opacity="0.00000" height="657.6563" width="8" x="30.6021" y="118.5938"/><line style="stroke:#181818;stroke-width:0.5;stroke-dasharray:5,5;" x1="34" x2="34" y1="118.5938" y2="776.25"/></g></g><g class="participant-lifeline" data-entity-uid="part2" data-qualified-name="API" data-source-line="5" id="part2-lifeline"><g><title>API Backend</title><rect fill="#000000" fill-opacity="0.00000" height="657.6563" width="8" x="185.4844" y="118.5938"/><line style="stroke:#181818;stroke-width:0.5;stroke-dasharray:5,5;" x1="189.0044" x2="189.0044" y1="118.5938" y2="776.25"/></g></g><g class="participant-lifeline" data-entity-uid="part3" data-qualified-name="DB" data-source-line="6" id="part3-lifeline"><g><title>PostgreSQL</title><rect fill="#000000" fill-opacity="0.00000" height="657.6563" width="8" x="379.1255" y="118.5938"/><line style="stroke:#181818;stroke-width:0.5;stroke-dasharray:5,5;" x1="382.749" x2="382.749" y1="118.5938" y2="776.25"/></g></g><g class="participant-lifeline" data-entity-uid="part4" data-qualified-name="MQ" data-source-line="7" id="part4-lifeline"><g><title>RabbitMQ</title><rect fill="#000000" fill-opacity="0.00000" height="657.6563" width="8" x="476.7808" y="118.5938"/><line style="stroke:#181818;stroke-width:0.5;stroke-dasharray:5,5;" x1="480.502" x2="480.502" y1="118.5938" y2="776.25"/></g></g><g class="participant-lifeline" data-entity-uid="part5" data-qualified-name="Worker" data-source-line="8" id="part5-lifeline"><g><title>Worker</title><rect fill="#000000" fill-opacity="0.00000" height="657.6563" width="8" x="635.3511" y="118.5938"/><line style="stroke:#181818;stroke-width:0.5;stroke-dasharray:5,5;" x1="639.1533" x2="639.1533" y1="118.5938" y2="776.25"/></g></g><g class="participant-lifeline" data-entity-uid="part6" data-qualified-name="PV" data-source-line="9" id="part6-lifeline"><g><title>Persistent Volume</title><rect fill="#000000" fill-opacity="0.00000" height="657.6563" width="8" x="776.229" y="118.5938"/><line style="stroke:#181818;stroke-width:0.5;stroke-dasharray:5,5;" x1="779.5488" x2="779.5488" y1="118.5938" y2="776.25"/></g></g><g class="participant participant-head" data-entity-uid="part1" data-qualified-name="Usuario" data-source-line="3" id="part1-head"><text fill="#000000" font-family="sans-serif" font-size="14" lengthAdjust="spacing" textLength="53.2041" x="5" y="115.292">Usuario</text><ellipse cx="34.6021" cy="50.7969" fill="#E2E2F0" rx="8" ry="8" style="stroke:#181818;stroke-width:0.5;"/><path d="M34.6021,58.7969 L34.6021,85.7969 M21.6021,66.7969 L47.6021,66.7969 M34.6021,85.7969 L21.6021,100.7969 M34.6021,85.7969 L47.6021,100.7969" fill="none" style="stroke:#181818;stroke-width:0.5;"/></g><g class="participant participant-tail" data-entity-uid="part1" data-qualified-name="Usuario" data-source-line="3" id="part1-tail"><text fill="#000000" font-family="sans-serif" font-size="14" lengthAdjust="spacing" textLength="53.2041" x="5" y="788.2451">Usuario</text><ellipse cx="34.6021" cy="800.0469" fill="#E2E2F0" rx="8" ry="8" style="stroke:#181818;stroke-width:0.5;"/><path d="M34.6021,808.0469 L34.6021,835.0469 M21.6021,816.0469 L47.6021,816.0469 M34.6021,835.0469 L21.6021,850.0469 M34.6021,835.0469 L47.6021,850.0469" fill="none" style="stroke:#181818;stroke-width:0.5;"/></g><g class="participant participant-head" data-entity-uid="part2" data-qualified-name="API" data-source-line="5" id="part2-head"><rect fill="#E2E2F0" height="30.2969" rx="2.5" ry="2.5" style="stroke:#181818;stroke-width:0.5;" width="100.96" x="139.0044" y="87.2969"/><text fill="#000000" font-family="sans-serif" font-size="14" lengthAdjust="spacing" textLength="86.96" x="146.0044" y="107.292">API Backend</text></g><g class="participant participant-tail" data-entity-uid="part2" data-qualified-name="API" data-source-line="5" id="part2-tail"><rect fill="#E2E2F0" height="30.2969" rx="2.5" ry="2.5" style="stroke:#181818;stroke-width:0.5;" width="100.96" x="139.0044" y="775.25"/><text fill="#000000" font-family="sans-serif" font-size="14" lengthAdjust="spacing" textLength="86.96" x="146.0044" y="795.2451">API Backend</text></g><g class="participant participant-head" data-entity-uid="part3" data-qualified-name="DB" data-source-line="6" id="part3-head"><text fill="#000000" font-family="sans-serif" font-size="14" lengthAdjust="spacing" textLength="80.7529" x="339.749" y="115.292">PostgreSQL</text><path d="M365.1255,66.2969 C365.1255,56.2969 383.1255,56.2969 383.1255,56.2969 C383.1255,56.2969 401.1255,56.2969 401.1255,66.2969 L401.1255,92.2969 C401.1255,102.2969 383.1255,102.2969 383.1255,102.2969 C383.1255,102.2969 365.1255,102.2969 365.1255,92.2969 L365.1255,66.2969" fill="#E2E2F0" style="stroke:#181818;stroke-width:0.5;"/><path d="M365.1255,66.2969 C365.1255,76.2969 383.1255,76.2969 383.1255,76.2969 C383.1255,76.2969 401.1255,76.2969 401.1255,66.2969" fill="none" style="stroke:#181818;stroke-width:0.5;"/></g><g class="participant participant-tail" data-entity-uid="part3" data-qualified-name="DB" data-source-line="6" id="part3-tail"><text fill="#000000" font-family="sans-serif" font-size="14" lengthAdjust="spacing" textLength="80.7529" x="339.749" y="788.2451">PostgreSQL</text><path d="M365.1255,801.5469 C365.1255,791.5469 383.1255,791.5469 383.1255,791.5469 C383.1255,791.5469 401.1255,791.5469 401.1255,801.5469 L401.1255,827.5469 C401.1255,837.5469 383.1255,837.5469 383.1255,837.5469 C383.1255,837.5469 365.1255,837.5469 365.1255,827.5469 L365.1255,801.5469" fill="#E2E2F0" style="stroke:#181818;stroke-width:0.5;"/><path d="M365.1255,801.5469 C365.1255,811.5469 383.1255,811.5469 383.1255,811.5469 C383.1255,811.5469 401.1255,811.5469 401.1255,801.5469" fill="none" style="stroke:#181818;stroke-width:0.5;"/></g><g class="participant participant-head" data-entity-uid="part4" data-qualified-name="MQ" data-source-line="7" id="part4-head"><path d="M441.502,92.2969 L520.0596,92.2969 C525.0596,92.2969 525.0596,105.4453 525.0596,105.4453 C525.0596,105.4453 525.0596,118.5938 520.0596,118.5938 L441.502,118.5938 C436.502,118.5938 436.502,105.4453 436.502,105.4453 C436.502,105.4453 436.502,92.2969 441.502,92.2969" fill="#E2E2F0" style="stroke:#181818;stroke-width:0.5;"/><path d="M520.0596,92.2969 C515.0596,92.2969 515.0596,105.4453 515.0596,105.4453 C515.0596,118.5938 520.0596,118.5938 520.0596,118.5938" fill="none" style="stroke:#181818;stroke-width:0.5;"/><text fill="#000000" font-family="sans-serif" font-size="14" lengthAdjust="spacing" textLength="68.5576" x="441.502" y="110.292">RabbitMQ</text></g><g class="participant participant-tail" data-entity-uid="part4" data-qualified-name="MQ" data-source-line="7" id="part4-tail"><path d="M441.502,775.25 L520.0596,775.25 C525.0596,775.25 525.0596,788.3984 525.0596,788.3984 C525.0596,788.3984 525.0596,801.5469 520.0596,801.5469 L441.502,801.5469 C436.502,801.5469 436.502,788.3984 436.502,788.3984 C436.502,788.3984 436.502,775.25 441.502,775.25" fill="#E2E2F0" style="stroke:#181818;stroke-width:0.5;"/><path d="M520.0596,775.25 C515.0596,775.25 515.0596,788.3984 515.0596,788.3984 C515.0596,801.5469 520.0596,801.5469 520.0596,801.5469" fill="none" style="stroke:#181818;stroke-width:0.5;"/><text fill="#000000" font-family="sans-serif" font-size="14" lengthAdjust="spacing" textLength="68.5576" x="441.502" y="793.2451">RabbitMQ</text></g><g class="participant participant-head" data-entity-uid="part5" data-qualified-name="Worker" data-source-line="8" id="part5-head"><rect fill="#E2E2F0" height="46.5938" rx="2.5" ry="2.5" style="stroke:#181818;stroke-width:0.5;" width="116.3955" x="581.1533" y="71"/><text fill="#000000" font-family="sans-serif" font-size="14" lengthAdjust="spacing" textLength="50.6406" x="614.0308" y="90.9951">Worker</text><text fill="#000000" font-family="sans-serif" font-size="14" lengthAdjust="spacing" textLength="102.3955" x="588.1533" y="107.292">Python + C++</text></g><g class="participant participant-tail" data-entity-uid="part5" data-qualified-name="Worker" data-source-line="8" id="part5-tail"><rect fill="#E2E2F0" height="46.5938" rx="2.5" ry="2.5" style="stroke:#181818;stroke-width:0.5;" width="116.3955" x="581.1533" y="775.25"/><text fill="#000000" font-family="sans-serif" font-size="14" lengthAdjust="spacing" textLength="50.6406" x="614.0308" y="795.2451">Worker</text><text fill="#000000" font-family="sans-serif" font-size="14" lengthAdjust="spacing" textLength="102.3955" x="588.1533" y="811.542">Python + C++</text></g><g class="participant participant-head" data-entity-uid="part6" data-qualified-name="PV" data-source-line="9" id="part6-head"><rect fill="#E2E2F0" height="30.2969" style="stroke:#181818;stroke-width:0.5;" width="141.3604" x="711.5488" y="83.2969"/><rect fill="#E2E2F0" height="30.2969" style="stroke:#181818;stroke-width:0.5;" width="141.3604" x="707.5488" y="87.2969"/><text fill="#000000" font-family="sans-serif" font-size="14" lengthAdjust="spacing" textLength="127.3604" x="714.5488" y="107.292">Persistent Volume</text></g><g class="participant participant-tail" data-entity-uid="part6" data-qualified-name="PV" data-source-line="9" id="part6-tail"><rect fill="#E2E2F0" height="30.2969" style="stroke:#181818;stroke-width:0.5;" width="141.3604" x="711.5488" y="775.25"/><rect fill="#E2E2F0" height="30.2969" style="stroke:#181818;stroke-width:0.5;" width="141.3604" x="707.5488" y="779.25"/><text fill="#000000" font-family="sans-serif" font-size="14" lengthAdjust="spacing" textLength="127.3604" x="714.5488" y="799.2451">Persistent Volume</text></g><rect fill="#EEEEEE" height="3" style="stroke:#EEEEEE;stroke-width:1;" width="857.9092" x="0" y="149.1602"/><line style="stroke:#000000;stroke-width:1;" x1="0" x2="857.9092" y1="149.1602" y2="149.1602"/><line style="stroke:#000000;stroke-width:1;" x1="0" x2="857.9092" y1="152.1602" y2="152.1602"/><rect fill="#EEEEEE" height="23.1328" style="stroke:#000000;stroke-width:2;" width="163.062" x="347.4236" y="138.5938"/><text fill="#000000" font-family="sans-serif" font-size="13" font-weight="700" lengthAdjust="spacing" textLength="144.5361" x="353.4236" y="154.6606">Creación del render</text><g class="message" data-entity-1="part1" data-entity-2="part2" data-source-line="13" id="msg1"><polygon fill="#181818" points="177.4844,188.8594,187.4844,192.8594,177.4844,196.8594,181.4844,192.8594" style="stroke:#181818;stroke-width:1;"/><line style="stroke:#181818;stroke-width:1;" x1="34.6021" x2="183.4844" y1="192.8594" y2="192.8594"/><text fill="#000000" font-family="sans-serif" font-size="13" lengthAdjust="spacing" textLength="85.9536" x="41.6021" y="187.7935">POST /render</text></g><g class="message" data-entity-1="part2" data-entity-2="part6" data-source-line="14" id="msg2"><polygon fill="#181818" points="768.229,217.9922,778.229,221.9922,768.229,225.9922,772.229,221.9922" style="stroke:#181818;stroke-width:1;"/><line style="stroke:#181818;stroke-width:1;" x1="189.4844" x2="774.229" y1="221.9922" y2="221.9922"/><text fill="#000000" font-family="sans-serif" font-size="13" lengthAdjust="spacing" textLength="103.4414" x="196.4844" y="216.9263">Guardar escena</text></g><g class="message" data-entity-1="part2" data-entity-2="part3" data-source-line="15" id="msg3"><polygon fill="#181818" points="371.1255,247.125,381.1255,251.125,371.1255,255.125,375.1255,251.125" style="stroke:#181818;stroke-width:1;"/><line style="stroke:#181818;stroke-width:1;" x1="189.4844" x2="377.1255" y1="251.125" y2="251.125"/><text fill="#000000" font-family="sans-serif" font-size="13" lengthAdjust="spacing" textLength="169.6411" x="196.4844" y="246.0591">Crear job(status=queued)</text></g><g class="message" data-entity-1="part2" data-entity-2="part4" data-source-line="17" id="msg4"><polygon fill="#181818" points="468.7808,276.2578,478.7808,280.2578,468.7808,284.2578,472.7808,280.2578" style="stroke:#181818;stroke-width:1;"/><line style="stroke:#181818;stroke-width:1;" x1="189.4844" x2="474.7808" y1="280.2578" y2="280.2578"/><text fill="#000000" font-family="sans-serif" font-size="13" lengthAdjust="spacing" textLength="120.1929" x="196.4844" y="275.1919">Publish render_job</text></g><g class="message" data-entity-1="part2" data-entity-2="part1" data-source-line="18" id="msg5"><polygon fill="#181818" points="45.6021,305.3906,35.6021,309.3906,45.6021,313.3906,41.6021,309.3906" style="stroke:#181818;stroke-width:1;"/><line style="stroke:#181818;stroke-width:1;stroke-dasharray:2,2;" x1="39.6021" x2="188.4844" y1="309.3906" y2="309.3906"/><text fill="#000000" font-family="sans-serif" font-size="13" lengthAdjust="spacing" textLength="38.1812" x="51.6021" y="304.3247">job_id</text></g><rect fill="#EEEEEE" height="3" style="stroke:#EEEEEE;stroke-width:1;" width="857.9092" x="0" y="337.957"/><line style="stroke:#000000;stroke-width:1;" x1="0" x2="857.9092" y1="337.957" y2="337.957"/><line style="stroke:#000000;stroke-width:1;" x1="0" x2="857.9092" y1="340.957" y2="340.957"/><rect fill="#EEEEEE" height="23.1328" style="stroke:#000000;stroke-width:2;" width="127.6484" x="365.1304" y="327.3906"/><text fill="#000000" font-family="sans-serif" font-size="13" font-weight="700" lengthAdjust="spacing" textLength="109.1226" x="371.1304" y="343.4575">Procesamiento</text><g class="message" data-entity-1="part4" data-entity-2="part5" data-source-line="22" id="msg6"><polygon fill="#181818" points="627.3511,377.6563,637.3511,381.6563,627.3511,385.6563,631.3511,381.6563" style="stroke:#181818;stroke-width:1;"/><line style="stroke:#181818;stroke-width:1;" x1="480.7808" x2="633.3511" y1="381.6563" y2="381.6563"/><text fill="#000000" font-family="sans-serif" font-size="13" lengthAdjust="spacing" textLength="134.5703" x="487.7808" y="376.5903">Consume render_job</text></g><g class="message" data-entity-1="part5" data-entity-2="part6" data-source-line="24" id="msg7"><polygon fill="#181818" points="768.229,406.7891,778.229,410.7891,768.229,414.7891,772.229,410.7891" style="stroke:#181818;stroke-width:1;"/><line style="stroke:#181818;stroke-width:1;" x1="639.3511" x2="774.229" y1="410.7891" y2="410.7891"/><text fill="#000000" font-family="sans-serif" font-size="13" lengthAdjust="spacing" textLength="78.8379" x="646.3511" y="405.7231">Leer escena</text></g><g class="message" data-entity-1="part5" data-entity-2="part5" data-source-line="25" id="msg8"><line style="stroke:#181818;stroke-width:1;" x1="639.3511" x2="681.3511" y1="439.9219" y2="439.9219"/><line style="stroke:#181818;stroke-width:1;" x1="681.3511" x2="681.3511" y1="439.9219" y2="452.9219"/><line style="stroke:#181818;stroke-width:1;" x1="640.3511" x2="681.3511" y1="452.9219" y2="452.9219"/><polygon fill="#181818" points="650.3511,448.9219,640.3511,452.9219,650.3511,456.9219,646.3511,452.9219" style="stroke:#181818;stroke-width:1;"/><text fill="#000000" font-family="sans-serif" font-size="13" lengthAdjust="spacing" textLength="100.9277" x="646.3511" y="434.856">Ejecutar render</text></g><g class="message" data-entity-1="part5" data-entity-2="part6" data-source-line="27" id="msg9"><polygon fill="#181818" points="768.229,478.0547,778.229,482.0547,768.229,486.0547,772.229,482.0547" style="stroke:#181818;stroke-width:1;"/><line style="stroke:#181818;stroke-width:1;" x1="639.3511" x2="774.229" y1="482.0547" y2="482.0547"/><text fill="#000000" font-family="sans-serif" font-size="13" lengthAdjust="spacing" textLength="106.0503" x="646.3511" y="476.9888">Guardar imagen</text></g><g class="message" data-entity-1="part5" data-entity-2="part2" data-source-line="28" id="msg10"><polygon fill="#181818" points="200.4844,507.1875,190.4844,511.1875,200.4844,515.1875,196.4844,511.1875" style="stroke:#181818;stroke-width:1;"/><line style="stroke:#181818;stroke-width:1;" x1="194.4844" x2="638.3511" y1="511.1875" y2="511.1875"/><text fill="#000000" font-family="sans-serif" font-size="13" lengthAdjust="spacing" textLength="161.9351" x="206.4844" y="506.1216">Render finalizado(job_id)</text></g><g class="message" data-entity-1="part2" data-entity-2="part3" data-source-line="30" id="msg11"><polygon fill="#181818" points="371.1255,536.3203,381.1255,540.3203,371.1255,544.3203,375.1255,540.3203" style="stroke:#181818;stroke-width:1;"/><line style="stroke:#181818;stroke-width:1;" x1="189.4844" x2="377.1255" y1="540.3203" y2="540.3203"/><text fill="#000000" font-family="sans-serif" font-size="13" lengthAdjust="spacing" textLength="139.8262" x="196.4844" y="535.2544">UPDATE status=done</text></g><rect fill="#EEEEEE" height="3" style="stroke:#EEEEEE;stroke-width:1;" width="857.9092" x="0" y="568.8867"/><line style="stroke:#000000;stroke-width:1;" x1="0" x2="857.9092" y1="568.8867" y2="568.8867"/><line style="stroke:#000000;stroke-width:1;" x1="0" x2="857.9092" y1="571.8867" y2="571.8867"/><rect fill="#EEEEEE" height="23.1328" style="stroke:#000000;stroke-width:2;" width="157.1143" x="350.3975" y="558.3203"/><text fill="#000000" font-family="sans-serif" font-size="13" font-weight="700" lengthAdjust="spacing" textLength="138.5884" x="356.3975" y="574.3872">Consulta resultado</text><g class="message" data-entity-1="part1" data-entity-2="part2" data-source-line="34" id="msg12"><polygon fill="#181818" points="177.4844,608.5859,187.4844,612.5859,177.4844,616.5859,181.4844,612.5859" style="stroke:#181818;stroke-width:1;"/><line style="stroke:#181818;stroke-width:1;" x1="34.6021" x2="183.4844" y1="612.5859" y2="612.5859"/><text fill="#000000" font-family="sans-serif" font-size="13" lengthAdjust="spacing" textLength="94.1167" x="41.6021" y="607.52">GET /jobs/{id}</text></g><g class="message" data-entity-1="part2" data-entity-2="part3" data-source-line="36" id="msg13"><polygon fill="#181818" points="371.1255,637.7188,381.1255,641.7188,371.1255,645.7188,375.1255,641.7188" style="stroke:#181818;stroke-width:1;"/><line style="stroke:#181818;stroke-width:1;" x1="189.4844" x2="377.1255" y1="641.7188" y2="641.7188"/><text fill="#000000" font-family="sans-serif" font-size="13" lengthAdjust="spacing" textLength="110.4746" x="196.4844" y="636.6528">Consultar estado</text></g><g class="message" data-entity-1="part3" data-entity-2="part2" data-source-line="37" id="msg14"><polygon fill="#181818" points="200.4844,666.8516,190.4844,670.8516,200.4844,674.8516,196.4844,670.8516" style="stroke:#181818;stroke-width:1;"/><line style="stroke:#181818;stroke-width:1;stroke-dasharray:2,2;" x1="194.4844" x2="382.1255" y1="670.8516" y2="670.8516"/><text fill="#000000" font-family="sans-serif" font-size="13" lengthAdjust="spacing" textLength="78.9331" x="206.4844" y="665.7856">output_path</text></g><g class="message" data-entity-1="part2" data-entity-2="part6" data-source-line="39" id="msg15"><polygon fill="#181818" points="768.229,695.9844,778.229,699.9844,768.229,703.9844,772.229,699.9844" style="stroke:#181818;stroke-width:1;"/><line style="stroke:#181818;stroke-width:1;" x1="189.4844" x2="774.229" y1="699.9844" y2="699.9844"/><text fill="#000000" font-family="sans-serif" font-size="13" lengthAdjust="spacing" textLength="163.376" x="196.4844" y="694.9185">Leer imagen renderizada</text></g><g class="message" data-entity-1="part6" data-entity-2="part2" data-source-line="40" id="msg16"><polygon fill="#181818" points="200.4844,725.1172,190.4844,729.1172,200.4844,733.1172,196.4844,729.1172" style="stroke:#181818;stroke-width:1;"/><line style="stroke:#181818;stroke-width:1;stroke-dasharray:2,2;" x1="194.4844" x2="779.229" y1="729.1172" y2="729.1172"/><text fill="#000000" font-family="sans-serif" font-size="13" lengthAdjust="spacing" textLength="27.6377" x="206.4844" y="724.0513">PNG</text></g><g class="message" data-entity-1="part2" data-entity-2="part1" data-source-line="42" id="msg17"><polygon fill="#181818" points="45.6021,754.25,35.6021,758.25,45.6021,762.25,41.6021,758.25" style="stroke:#181818;stroke-width:1;"/><line style="stroke:#181818;stroke-width:1;stroke-dasharray:2,2;" x1="39.6021" x2="188.4844" y1="758.25" y2="758.25"/><text fill="#000000" font-family="sans-serif" font-size="13" lengthAdjust="spacing" textLength="130.8823" x="51.6021" y="753.1841">Imagen renderizada</text></g><?plantuml-src RLBBRXin3BphAmYVKXX6xW6sG1oxHe2ubVDmBmKChiJ6SjQIgyUXBVfL_OJ-M2bfruxRd1RY38Spv4OJEu8FNTevq0HxiW5t5602zsGrUPYP4Brfaz5E25JHUNWA2RtXvm5zDCeSq4OONSjRcA9wuROHO01-2uqHMmm48-b2VFRqiBehu6mglYLA3DnZsvguN9NoSdMk-Tdv5_9VhFmUjyx266x6uqAiW52kwqX5uspW4UG3coLkNBikxQamvLg8fe4RJwZCdz-MKtRWQxQc4Q8F0vFtsJ5SWVpqy0YNbI5oYH6vPc31H8qUA2YoE42pAKDPtSFEjHSXOaoXAU7qEp6mbgkidDhEX6q_VSFq2ZC-kBZA8XkZYsVfdQA0UyEHN37BCaokuVDOpiqvNmkA7XnCtn4T7P-Wey9yHof5zjxd_RTzo6ps-4ps5LftrVyZNut5pln0xIwg_LFmifudERj-d4E_6-qirPja-rr47bw-shrzaSMS3yB2uVAdqR_EfGUD738h2AvEZfqknKEAcmF6hJYxPLbB3TL7p_PHC7ZgbXyNueqBtVxNzXS0?></g></svg>